<?xml version="1.0" standalone="no"?>
<!DOCTYPE svg PUBLIC "-//W3C//DTD SVG 20010904//EN"
 "http://www.w3.org/TR/2001/REC-SVG-20010904/DTD/svg10.dtd">
<svg version="1.0" xmlns="http://www.w3.org/2000/svg"
 width="1920.000000pt" height="1920.000000pt" viewBox="0 0 1920.000000 1920.000000"
 preserveAspectRatio="xMidYMid meet">

<g transform="translate(0.000000,1920.000000) scale(0.100000,-0.100000)"
fill="#000000" stroke="none">
<path d="M0 9600 l0 -9600 9600 0 9600 0 0 9600 0 9600 -9600 0 -9600 0 0
-9600z m6586 1997 c198 -336 713 -1210 1144 -1942 430 -731 788 -1336 795
-1343 9 -10 22 26 60 175 26 103 71 280 100 393 l53 205 1 -1048 1 -1047 -397
2 -396 3 -656 1087 c-361 597 -818 1355 -1016 1683 -1324 2194 -1431 2370
-1455 2382 -14 8 -50 24 -80 38 l-55 24 770 0 770 1 361 -613z m2814 609 c0
-2 -21 -16 -47 -31 -72 -43 -206 -178 -274 -277 -110 -160 -205 -391 -263
-638 -24 -100 -65 -352 -67 -415 -1 -16 -10 35 -20 114 -37 283 -98 498 -204
718 -84 175 -179 316 -294 435 l-93 98 631 0 c347 0 631 -2 631 -4z m2185 -4
c-6 -5 -22 -18 -37 -29 l-27 -20 296 -519 c162 -285 459 -806 659 -1158 l364
-639 0 -1387 0 -1387 52 -37 52 -36 -697 0 c-383 0 -697 2 -697 5 0 2 20 18
45 35 l45 31 0 1258 0 1257 -709 1246 c-390 686 -717 1260 -725 1277 -9 16
-41 48 -73 70 l-56 41 758 0 c418 0 755 -4 750 -8z m2876 -25 c-341 -202 -678
-593 -976 -1132 -42 -77 -74 -131 -71 -121 47 140 92 367 105 526 27 330 -63
601 -243 732 l-39 28 639 0 639 -1 -54 -32z m-9011 -3912 c62 -497 258 -948
522 -1207 l70 -68 -643 0 -644 0 55 37 c131 88 275 270 370 467 116 243 203
584 236 931 l8 80 7 -75 c5 -41 13 -115 19 -165z"/>
</g>
</svg>
