<?xml version="1.0" standalone="no"?>
<!DOCTYPE svg PUBLIC "-//W3C//DTD SVG 20010904//EN"
 "http://www.w3.org/TR/2001/REC-SVG-20010904/DTD/svg10.dtd">
<svg version="1.0" xmlns="http://www.w3.org/2000/svg"
 width="500.000000pt" height="500.000000pt" viewBox="0 0 500.000000 500.000000"
 preserveAspectRatio="xMidYMid meet">

<g transform="translate(0.000000,500.000000) scale(0.100000,-0.100000)"
fill="#000000" stroke="none">
<path d="M1010 3275 c0 -347 0 -355 20 -355 19 0 20 8 22 278 l3 277 190 -277
189 -278 138 0 137 0 -77 113 c-42 62 -151 221 -242 354 l-165 242 -107 1
-108 0 0 -355z"/>
<path d="M2364 3608 c31 -114 56 -363 56 -555 0 -126 1 -133 20 -133 19 0 20
7 20 149 0 190 30 476 56 546 5 13 -7 15 -76 15 -81 0 -82 0 -76 -22z"/>
<path d="M2948 3275 l185 -355 134 0 135 0 -20 33 c-10 17 -94 177 -186 355
l-168 322 -133 0 -133 0 186 -355z"/>
<path d="M3920 3529 c0 -152 -19 -215 -126 -425 -77 -149 -91 -184 -76 -184
13 0 63 86 200 349 100 191 182 351 182 355 0 3 -40 6 -90 6 l-90 0 0 -101z"/>
<path d="M862 2698 l2 -103 3 88 c2 48 6 87 9 87 3 0 41 -38 86 -85 44 -47 84
-85 89 -85 5 0 9 45 9 100 0 60 -4 100 -10 100 -6 0 -10 -36 -10 -87 l-1 -88
-82 88 c-45 48 -86 87 -90 87 -4 0 -6 -46 -5 -102z"/>
<path d="M1160 2700 l0 -100 88 2 87 2 -82 3 -83 4 0 39 0 40 70 0 c40 0 70 4
70 10 0 6 -30 10 -70 10 l-70 0 0 35 0 35 80 0 c47 0 80 4 80 10 0 6 -35 10
-85 10 l-85 0 0 -100z"/>
<path d="M1420 2700 l0 -100 88 2 87 2 -82 3 -83 4 0 39 0 40 70 0 c40 0 70 4
70 10 0 6 -30 10 -70 10 l-70 0 0 35 0 35 80 0 c47 0 80 4 80 10 0 6 -35 10
-85 10 l-85 0 0 -100z"/>
<path d="M1682 2703 l-2 -103 88 2 87 2 -82 3 -82 4 -4 97 -3 97 -2 -102z"/>
<path d="M1930 2700 l0 -100 88 2 87 2 -82 3 -83 4 0 39 0 40 70 0 c40 0 70 4
70 10 0 6 -30 10 -70 10 l-70 0 0 35 0 35 80 0 c47 0 80 4 80 10 0 6 -35 10
-85 10 l-85 0 0 -100z"/>
<path d="M2202 2784 c-16 -11 -22 -24 -20 -42 3 -24 10 -29 63 -42 33 -9 68
-18 78 -22 24 -10 21 -45 -4 -59 -22 -11 -97 -8 -134 6 -16 7 -18 6 -7 -6 7
-7 40 -15 76 -17 55 -4 67 -1 85 17 42 42 17 71 -82 91 -67 13 -82 33 -48 62
26 20 66 23 105 8 14 -5 26 -6 26 -1 0 24 -106 28 -138 5z"/>
<path d="M2440 2700 c0 -60 4 -100 10 -100 6 0 10 20 10 45 l0 45 80 0 80 0 0
-45 c0 -25 5 -45 10 -45 6 0 10 40 10 100 0 60 -4 100 -10 100 -5 0 -10 -20
-10 -45 l0 -45 -80 0 -80 0 0 45 c0 25 -4 45 -10 45 -6 0 -10 -40 -10 -100z"/>
<path d="M2837 2788 c6 -7 29 -38 52 -67 35 -45 42 -61 39 -88 -2 -18 0 -33 4
-33 4 0 8 18 8 39 0 32 9 50 46 96 25 31 44 58 41 61 -2 2 -21 -17 -42 -43
-21 -27 -42 -52 -46 -56 -3 -5 -26 17 -50 47 -24 31 -48 56 -53 56 -4 0 -4 -6
1 -12z"/>
<path d="M3141 2704 c-28 -53 -49 -99 -47 -102 3 -2 11 7 17 22 12 25 16 26
89 26 73 0 77 -1 89 -26 6 -15 14 -24 17 -21 7 7 -94 197 -105 197 -4 0 -31
-43 -60 -96z m119 -31 c0 -1 -27 -3 -60 -3 l-60 0 21 43 c37 73 39 73 71 16
15 -29 28 -54 28 -56z"/>
<path d="M3390 2700 l0 -100 60 0 c92 0 140 32 140 94 0 69 -51 106 -144 106
l-56 0 0 -100z m123 79 c28 -7 42 -19 54 -43 33 -69 -24 -129 -117 -124 l-45
3 -3 74 c-2 41 -1 80 2 88 6 16 56 17 109 2z"/>
<path d="M3707 2700 c-30 -55 -51 -100 -46 -100 5 0 15 11 21 25 10 23 16 25
84 25 68 0 75 -2 90 -25 9 -14 19 -24 21 -22 5 6 -100 197 -108 197 -4 0 -32
-45 -62 -100z m104 8 l19 -38 -60 0 c-33 0 -60 2 -60 5 0 3 12 27 28 55 30 55
33 54 73 -22z"/>
<path d="M3940 2795 c0 -16 96 -189 106 -192 11 -4 119 186 111 194 -3 3 -27
-36 -54 -86 -26 -50 -50 -91 -53 -91 -3 0 -23 33 -45 73 -44 83 -65 116 -65
102z"/>
<path d="M50 2675 c0 -13 36 -15 276 -15 216 0 275 3 272 13 -4 9 -70 13 -276
15 -238 2 -272 0 -272 -13z"/>
<path d="M4430 2675 c0 -13 37 -15 270 -15 233 0 270 2 270 15 0 13 -37 15
-270 15 -233 0 -270 -2 -270 -15z"/>
<path d="M1017 2423 c-4 -3 -7 -63 -7 -132 0 -154 -14 -310 -39 -431 l-18 -90
80 0 80 0 -7 33 c-34 166 -56 383 -56 555 0 53 -3 72 -13 72 -8 0 -17 -3 -20
-7z"/>
<path d="M1887 2258 c65 -95 165 -243 224 -328 l106 -155 122 -3 121 -3 0 331
c0 322 0 330 -20 330 -19 0 -20 -8 -22 -269 l-3 -269 -184 269 -185 269 -138
0 -139 0 118 -172z"/>
<path d="M3300 2100 l0 -330 135 0 135 0 0 330 0 330 -135 0 -135 0 0 -330z"/>
</g>
</svg>
