<?xml version="1.0"?>
<svg version="1.1" xmlns="http://www.w3.org/2000/svg" width="400" height="200" style=""><path fill="#f2f7f7" d="M21.02,112.88l2.66,0.56l0,1.68l-7.56,0l0-1.68l2.38-0.56l0-15.12l-2.38-0.56l0-1.54l5.88-0.14l9.24,15.652l0-13.412l-2.38-0.56l0-1.54l7.28-0.14l0,1.68l-2.38,0.56l0,17.36l-3.5,0l-9.24-15.428l0,13.188z M52.7608,108.12l-9.66,0c0,3.08,1.652,5.04,4.06,5.04c2.8,0,4.704-1.54,4.704-1.54l0.98,1.456s-2.604,2.324-5.964,2.324c-4.48,0-6.72-2.94-6.72-7.56c0-4.48,2.8-7.84,6.86-7.84s5.88,2.38,5.88,6.58c0,0.7-0.14,1.484-0.14,1.54z M43.2128,106.02l6.72,0c0-2.1-0.812-3.836-3.052-3.836s-3.5,1.736-3.668,3.836z M69.8016,108.12l-9.66,0c0,3.08,1.652,5.04,4.06,5.04c2.8,0,4.704-1.54,4.704-1.54l0.98,1.456s-2.604,2.324-5.964,2.324c-4.48,0-6.72-2.94-6.72-7.56c0-4.48,2.8-7.84,6.86-7.84s5.88,2.38,5.88,6.58c0,0.7-0.14,1.484-0.14,1.54z M60.2536,106.02l6.72,0c0-2.1-0.812-3.836-3.052-3.836s-3.5,1.736-3.668,3.836z M81.5784,113.58l0,1.54l-7.756,0l0-1.54l2.38-0.7l0-17.08l-2.38-0.56l0-1.54l5.236-0.14l0,19.32z M97.3592,108.12l-9.66,0c0,3.08,1.652,5.04,4.06,5.04c2.8,0,4.704-1.54,4.704-1.54l0.98,1.456s-2.604,2.324-5.964,2.324c-4.48,0-6.72-2.94-6.72-7.56c0-4.48,2.8-7.84,6.86-7.84s5.88,2.38,5.88,6.58c0,0.7-0.14,1.484-0.14,1.54z M87.8112,106.02l6.72,0c0-2.1-0.812-3.836-3.052-3.836s-3.5,1.736-3.668,3.836z M103.928,110.64l0.308,2.408s0.84,0.252,2.352,0.252c1.68,0,3.164-0.476,3.164-2.212c0-3.024-7.812-1.624-7.812-6.72c0-2.912,2.24-4.368,5.124-4.368c2.212,0,4.788,0.84,4.788,0.84l-0.084,3.78l-1.82,0l-0.448-2.184s-0.868-0.336-2.268-0.336c-1.428,0-2.492,0.448-2.492,1.876c0,2.996,7.812,1.848,7.812,6.636c0,3.22-2.8,4.788-6.16,4.788c-2.576,0-4.424-0.616-4.424-0.616l0-4.144l1.96,0z M121.6128,93.56l0,8.456c0.868-0.728,2.828-2.016,4.9-2.016c3.08,0,4.48,1.96,4.48,5.04l0,7.84l2.1,0.7l0,1.54l-6.72,0l0-1.54l1.82-0.672l0-7.588c0-1.96-0.616-2.94-2.436-2.94c-2.38,0-4.144,2.24-4.144,2.24l0,8.26l1.82,0.7l0,1.54l-7,0l0-1.54l2.38-0.7l0-17.08l-2.38-0.56l0-1.54z"/><path fill="#f0fafa" d="M148.4136,112.88l0-5.012l-5.404-10.136l-1.876-0.532l0-1.54l7-0.14l0,1.68l-1.904,0.56l3.724,7.84l4.116-7.84l-2.156-0.56l0-1.54l6.72-0.14l0,1.68l-1.736,0.504l-5.544,10.108l0,5.068l2.38,0.56l0,1.68l-7.7,0l0-1.68z M163.0744,104.62l-0.14-3.5s3.08-1.12,5.46-1.12c3.248,0,5.18,1.12,5.18,4.34l0,8.54l2.24,0.56l0,1.54l-4.34,0.14l-0.588-1.96c-0.952,0.952-2.632,2.24-4.592,2.24c-2.66,0-4.2-1.54-4.2-4.2c0-3.22,2.52-4.34,6.44-4.34l2.24,0l0-2.24c0-1.68-0.98-2.52-2.66-2.52s-2.828,0.42-2.828,0.42l-0.392,2.1l-1.82,0z M170.7744,108.68l-1.96,0c-2.8,0-3.864,0.7-3.864,2.38c0,1.26,0.784,2.1,2.044,2.1c2.1,0,3.78-2.24,3.78-2.24l0-2.24z M195.0952,113.44l0,1.54l-4.76,0.14l-0.224-1.596c-0.812,0.812-2.268,1.876-4.396,1.876c-4.06,0-5.88-2.94-5.88-7.28c0-4.76,2.38-8.12,7.42-8.12c1.036,0,1.932,0.196,2.66,0.448l0-4.648l-2.38-0.56l0-1.54l5.18-0.14l0,19.32z M189.9152,111.06l0-8.26s-0.98-0.56-2.94-0.56c-3.248,0-4.2,2.52-4.2,5.6s0.98,5.32,3.5,5.32c2.38,0,3.64-2.1,3.64-2.1z M199.956,104.62l-0.14-3.5s3.08-1.12,5.46-1.12c3.248,0,5.18,1.12,5.18,4.34l0,8.54l2.24,0.56l0,1.54l-4.34,0.14l-0.588-1.96c-0.952,0.952-2.632,2.24-4.592,2.24c-2.66,0-4.2-1.54-4.2-4.2c0-3.22,2.52-4.34,6.44-4.34l2.24,0l0-2.24c0-1.68-0.98-2.52-2.66-2.52s-2.828,0.42-2.828,0.42l-0.392,2.1l-1.82,0z M207.656,108.68l-1.96,0c-2.8,0-3.864,0.7-3.864,2.38c0,1.26,0.784,2.1,2.044,2.1c2.1,0,3.78-2.24,3.78-2.24l0-2.24z M219.9368,102.24l3.332,10.36l3.36-10.22l-1.932-0.42l0-1.54l6.272-0.14l0,1.68l-1.54,0.28l-4.76,12.88l-3.08,0l-4.592-12.74l-1.4-0.42l0-1.54l6.3-0.14l0,1.68z"/></svg>
